<svg width="512" height="512" viewBox="0 0 512 512" fill="none" xmlns="http://www.w3.org/2000/svg">
  <rect width="512" height="512" rx="136" fill="#08111F"/>
  <circle cx="154" cy="146" r="136" fill="url(#paint0_radial)" fill-opacity="0.8"/>
  <circle cx="392" cy="114" r="104" fill="url(#paint1_radial)" fill-opacity="0.8"/>
  <rect x="88" y="112" width="336" height="288" rx="48" fill="url(#paint2_linear)" stroke="white" stroke-opacity="0.2"/>
  <rect x="128" y="156" width="160" height="28" rx="14" fill="#67E8F9" fill-opacity="0.22"/>
  <rect x="128" y="210" width="256" height="20" rx="10" fill="#E2E8F0" fill-opacity="0.2"/>
  <rect x="128" y="250" width="196" height="20" rx="10" fill="#E2E8F0" fill-opacity="0.14"/>
  <rect x="128" y="300" width="112" height="48" rx="24" fill="#F59E0B" fill-opacity="0.95"/>
  <path d="M349.396 197.891C333.855 197.891 321.256 210.49 321.256 226.031C321.256 241.572 333.855 254.172 349.396 254.172C364.938 254.172 377.537 241.572 377.537 226.031C377.537 210.49 364.938 197.891 349.396 197.891ZM349.396 180.891C374.327 180.891 394.537 201.102 394.537 226.031C394.537 250.962 374.327 271.172 349.396 271.172C324.466 271.172 304.256 250.962 304.256 226.031C304.256 201.102 324.466 180.891 349.396 180.891Z" fill="#E2E8F0"/>
  <path d="M346.942 302.708L305.968 344.716H322.832L363.806 302.708H346.942Z" fill="#67E8F9"/>
  <defs>
    <radialGradient id="paint0_radial" cx="0" cy="0" r="1" gradientUnits="userSpaceOnUse" gradientTransform="translate(154 146) rotate(90) scale(136)">
      <stop stop-color="#67E8F9"/>
      <stop offset="1" stop-color="#67E8F9" stop-opacity="0"/>
    </radialGradient>
    <radialGradient id="paint1_radial" cx="0" cy="0" r="1" gradientUnits="userSpaceOnUse" gradientTransform="translate(392 114) rotate(90) scale(104)">
      <stop stop-color="#F59E0B"/>
      <stop offset="1" stop-color="#F59E0B" stop-opacity="0"/>
    </radialGradient>
    <linearGradient id="paint2_linear" x1="88" y1="112" x2="424" y2="400" gradientUnits="userSpaceOnUse">
      <stop stop-color="#111827"/>
      <stop offset="1" stop-color="#0B1020"/>
    </linearGradient>
  </defs>
</svg>
